<svg xmlns="http://www.w3.org/2000/svg" viewBox="0 0 24 24" fill="currentColor" className="w-6 h-6"><path d="M22.46 6.01c-.8.35-1.66.58-2.56.68a4.47 4.47 0 0 0 1.96-2.46 8.92 8.92 0 0 1-2.85 1.09A4.47 4.47 0 0 0 16.9 4c-2.47 0-4.47 2-4.47 4.47 0 .35.04.69.11 1.02-3.73-.19-7.04-1.97-9.24-4.69a4.47 4.47 0 0 0-.6 2.24c0 1.55.79 2.91 1.98 3.71a4.46 4.46 0 0 1-2.03-.56v.06c0 2.16 1.54 3.97 3.58 4.38-.37.1-.76.15-1.16.15-.28 0-.56-.03-.83-.07.56 1.74 2.16 3 4.06 3.03a8.97 8.97 0 0 1-5.57 1.93c-.36 0-.71-.02-1.06-.06a12.69 12.69 0 0 0 6.85 2.01c8.22 0 12.71-6.81 12.71-12.71 0-.19-.01-.38-.02-.56a9.1 9.1 0 0 0 2.24-2.31z"/></svg>
